<svg xmlns="http://www.w3.org/2000/svg" viewBox="0 0 24 24">
 <path fill="currentColor" class="ColorScheme-Text" d="m 10,4.9999999 c -0.4,0 -0.399445,7.07e-4 -0.779297,0.4042969 L 8.136719,6.9999998 H 5.59961 C 4.719609,6.9999998 4,7.6561631 4,8.5117182 V 17.445312 C 4,18.300868 4.719609,19 5.59961,19 H 18.400391 C 19.280391,19 20,18.300869 20,17.445312 V 8.5117182 C 20,7.656163 19.280391,6.9999998 18.400391,6.9999998 h -2.53711 L 14.765625,5.3886718 C 14.400447,5.0006729 14.4,4.9999999 14,4.9999999 Z m 8.488281,2.9999999 a 0.5,0.5 0 0 1 0.01172,0 0.5,0.5 0 0 1 0.5,0.5000004 0.5,0.5 0 0 1 -0.5,0.4999999 0.5,0.5 0 0 1 -0.5,-0.4999999 0.5,0.5 0 0 1 0.488281,-0.5000004 z m -6.548828,1.0000003 a 4,4 0 0 1 0.06055,0 4,4 0 0 1 4,3.9999999 4,4 0 0 1 -4,4 4,4 0 0 1 -4,-4 4,4 0 0 1 3.939453,-3.9999999 z M 11.951173,11 a 2,2 0 0 0 -1.951172,2 2,2 0 0 0 2,1.999999 2,2 0 0 0 2,-1.999999 2,2 0 0 0 -2,-2 2,2 0 0 0 -0.04883,0 z"/>
</svg>
